<svg width="398" height="441" fill="none" xmlns="http://www.w3.org/2000/svg"><g clip-path="url(#clip0)" fill="#3D3D3D"><path d="M370.82 300.568c-4.787-11.482-11.39-22.788-21.046-35.847-24.348-32.779-31.776-105.876-31.859-106.577-.33-3.506-2.641-6.398-5.695-7.45-3.136-1.051-6.52-.087-8.749 2.542-29.052 34.795-16.837 88.522-10.234 109.995 1.816 5.872 3.797 12.796 5.199 19.808 10.73 56.706-9.987 82.386-14.856 87.557-4.705 1.403-7.924.701-10.895-2.717-10.234-12.007-13.618-51.36-8.831-102.632.991-10.43.742-19.808-.661-28.573-10.095-63.019-47.112-103.443-56.536-117.619-25.916-41.018-28.558-109.294-28.64-109.908-.083-3.242-1.816-6.135-4.54-7.537-2.641-1.402-5.86-1.227-8.336.613-43.248 31.465-39.534 107.278-33.509 149.611 1.403 9.816 4.127 19.808 8.831 32.429 16.755 45.137-3.301 103.421-3.466 103.947-.165.526-.33.964-.413 1.49-2.558 14.374-6.85 22.963-11.637 22.963-.496 0-.991-.088-1.569-.263-5.86-1.315-8.913-7.976-8.996-13.76-.33-74.762-70.403-99.916-71.145-100.179-3.137-1.052-6.603-.088-8.75 2.629-2.227 2.717-2.64 6.486-1.155 9.641.826 1.841 3.467 9.904 1.651 38.389-1.568 25.592-5.942 50.922-12.958 75.2C5.353 382.516 7.995 437.645 8.16 440.274c12.82 149.266 213.304 175.421 332.287 91.327 13.041-9.203 23.688-19.721 31.529-31.29 43.91-64.857 18.076-152.941-1.155-199.743zM65.852 443.167c.248 4.82-3.219 8.939-7.758 9.202h-.495c-4.375 0-8.006-3.593-8.254-8.238-.743-12.797-.578-26.206.33-40.755.33-4.821 4.292-8.414 8.832-8.152 4.539.35 8.006 4.557 7.675 9.378-.908 13.849-1.073 26.469-.33 38.565zm4.044-77.654c-.496 4.47-4.045 7.713-8.171 7.713-.33 0-.66 0-1.073-.088-4.457-.614-7.676-4.908-7.18-9.729l3.96-33.831c.578-4.733 4.623-8.151 9.245-7.625 4.54.614 7.758 4.996 7.18 9.816l-3.961 33.744zM314.982 120.529c-4.502-.741-7.589-5.208-6.895-9.988.515-3.561 3.497-21.791 11.59-30.958 3.115-3.535 8.33-3.72 11.667-.398 3.325 3.308 3.494 8.855.375 12.39-3.425 3.881-6.344 14.99-7.318 21.637-.697 4.73-4.851 8.049-9.419 7.317zM14.09 164.186c-1.58-6.518-5.505-17.267-9.273-20.777-3.429-3.193-3.771-8.73-.765-12.367 2.998-3.646 8.209-4.019 11.646-.814 8.894 8.281 13.54 26.114 14.384 29.602 1.128 4.686-1.532 9.453-5.94 10.66-4.507 1.203-8.928-1.695-10.052-6.304z"/></g><defs><clipPath id="clip0"><path fill="#fff" transform="translate(.956 .621)" d="M0 0h396.17v439.666H0z"/></clipPath></defs></svg>