<svg aria-hidden="true" style="position: absolute; width: 0; height: 0; overflow: hidden;" version="1.1" xmlns="http://www.w3.org/2000/svg" xmlns:xlink="http://www.w3.org/1999/xlink">
<defs>
<symbol id="open-book" viewBox="0 0 46 32">
<path d="M20.267 4.608h-13.64v1.021h13.64v-1.021zM20.267 8.416h-11.597v1.021h11.597v-1.021zM20.267 12.224h-13.64v1.021h13.64v-1.021zM20.267 16.032h-11.597v1.021h11.597v-1.021zM20.267 19.84h-13.64v1.021h13.64v-1.021zM20.267 23.648h-11.597v1.021h11.597v-1.021zM38.99 4.608h-13.64v1.021h13.64v-1.021zM36.947 8.416h-11.597v1.021h11.596v-1.021zM38.99 12.224h-13.64v1.021h13.64v-1.021zM36.947 16.032h-11.597v1.021h11.596v-1.021zM38.99 19.84h-13.64v1.021h13.64v-1.021zM36.947 23.648h-11.597v1.021h11.596v-1.021z"></path>
<path d="M43.915 3.445h-1.872v-2.812c0-0.282-0.229-0.511-0.511-0.511v0h-15.265c-0.005-0-0.011-0-0.018-0-1.469 0-2.75 0.802-3.43 1.991l-0.010 0.019c-0.691-1.209-1.973-2.011-3.442-2.011-0.006 0-0.012 0-0.017 0h-15.264c-0.282 0-0.511 0.229-0.511 0.511v0 2.812h-1.873c-0.282 0-0.511 0.229-0.511 0.511v0 27.411c0 0.282 0.229 0.511 0.511 0.511h42.213c0.282-0 0.51-0.229 0.51-0.511 0 0 0 0 0 0v0-27.411c0-0.282-0.229-0.511-0.511-0.511v0zM26.267 1.144h14.753v27.349h-15.842c-0.703 0-1.405 0.296-1.859 0.68v-25.088c0-0.003 0-0.006 0-0.009 0-1.619 1.313-2.932 2.932-2.932 0.005 0 0.010 0 0.015 0h-0.001zM4.596 1.144h14.753c0.006-0 0.013-0 0.020-0 1.581 0 2.869 1.255 2.922 2.824l0 0.005c0.001 0.022 0.003 0.091 0.007 0.113v25.087c-0.453-0.383-1.148-0.678-1.852-0.678h-15.85v-27.35zM2.213 4.467h1.362v24.538c0 0.282 0.229 0.511 0.511 0.511h16.36c0.779 0 1.531 0.511 1.772 1.341h-20.005v-26.389zM43.404 30.856h-20.004c0.227-0.78 0.936-1.341 1.775-1.341 0.001 0 0.002 0 0.003 0h16.353c0 0 0 0 0.001 0 0.282 0 0.511-0.229 0.511-0.511v0-24.538h1.361v26.389z"></path>
</symbol>
<symbol id="arrow-left" viewBox="0 0 54 32">
<path fill="#ff6b09" style="fill: var(--color2, #ff6b09)" d="M52 14c1.105 0 2 0.895 2 2s-0.895 2-2 2v0-4zM0.586 17.414c-0.362-0.362-0.586-0.862-0.586-1.414s0.224-1.052 0.586-1.414l12.728-12.728c0.357-0.335 0.838-0.541 1.368-0.541 1.105 0 2 0.895 2 2 0 0.53-0.206 1.012-0.543 1.37l0.001-0.001-11.312 11.314 11.314 11.314c0.377 0.364 0.611 0.874 0.611 1.439 0 1.105-0.895 2-2 2-0.565 0-1.074-0.234-1.438-0.61l-0.001-0.001-12.728-12.728zM52 18h-50v-4h50v4z"></path>
</symbol>
<symbol id="arrow-right" viewBox="0 0 54 32">
<path fill="#ff6b09" style="fill: var(--color2, #ff6b09)" d="M2 14c-1.105 0-2 0.895-2 2s0.895 2 2 2v0-4zM53.414 17.414c0.362-0.362 0.586-0.862 0.586-1.414s-0.224-1.052-0.586-1.414l-12.728-12.728c-0.364-0.377-0.874-0.611-1.439-0.611-1.105 0-2 0.895-2 2 0 0.565 0.234 1.074 0.61 1.438l0.001 0.001 11.314 11.314-11.314 11.314c-0.347 0.359-0.561 0.849-0.561 1.389 0 1.105 0.895 2 2 2 0.54 0 1.030-0.214 1.39-0.562l-0.001 0.001 12.728-12.728zM2 18h50v-4h-50v4z"></path>
</symbol>
<symbol id="ellipse" viewBox="0 0 36 32">
<path fill="#ff6b09" style="fill: var(--color2, #ff6b09)" d="M34.284 16c0 8.837-7.675 16-17.142 16s-17.142-7.163-17.142-16c0-8.837 7.675-16 17.142-16s17.142 7.163 17.142 16z"></path>
</symbol>
<symbol id="check-mark" viewBox="0 0 40 32">
<path fill="#ff6b09" style="fill: var(--color2, #ff6b09)" d="M34.458 1.514c-1.485 0.664-2.907 1.475-4.266 2.379-2.731 1.797-5.227 3.936-7.568 6.218-2.291 2.256-4.444 4.63-6.458 7.12l-0.125 0.16c-0.515 0.637-2.822 3.472-2.822 3.472l-9.597-14.382-3.622 10.043 12.976 15.477c1.261-2.552 2.474-5.070 3.664-7.258 0.294-0.557 0.605-1.080 0.901-1.613 0 0 1.523-2.677 1.923-3.35 1.602-2.698 3.333-5.325 5.238-7.821 1.909-2.491 3.984-4.87 6.336-6.96 1.117-1.018 2.342-1.964 3.64-2.807l0.11-0.067c1.331-0.848 2.747-1.59 4.261-2.125-1.574 0.31-3.112 0.848-4.592 1.514z"></path>
</symbol>
<symbol id="advantages-1" viewBox="0 0 31 32">
<path fill="#ff6b09" style="fill: var(--color2, #ff6b09)" d="M7.953 23.273h12.362c0.062-1.41-0.040-3.749-0.906-4.862l-0.031-0.040-1.894-0.951c0.041-0.139 0.062-0.266 0.070-0.359 0.002-0.019 0.003-0.041 0.003-0.063 0-0.090-0.018-0.176-0.051-0.254l0.002 0.004c-0.312-0.748-0.974-1.141-1.337-1.309 0.111-0.223 0.182-0.463 0.217-0.708 0.21-0.060 0.372-0.226 0.425-0.435l0.001-0.004 0.221-0.898c0.012-0.044 0.018-0.095 0.018-0.147 0-0.116-0.033-0.225-0.090-0.318l0.002 0.003c-0.037-0.060-0.082-0.111-0.134-0.153l-0.001-0.001c0.623-1.416-0.421-2.751-0.478-2.822-1.13-1.222-2.559-0.994-2.634-0.98-2.061 0.432-2.857 2.011-2.408 3.864-0.097 0.107-0.157 0.251-0.157 0.408 0 0.052 0.006 0.102 0.019 0.15l-0.001-0.004 0.222 0.899c0.054 0.216 0.218 0.378 0.422 0.437 0.066 0.456 0.256 0.86 0.535 1.185l-0.003-0.003v0.712c-2.958 1.515-1.084 0.548-3.454 1.748-0.005 0.022-1.112 1.199-0.948 4.688l0.010 0.213zM19.885 22.826h-2.034v-0.855l1.346-3.081c0.674 1.119 0.699 3.255 0.689 3.935zM17.109 17.023c-0.079 0.902-0.573 0.63-0.878 1.324-0.24-0.264-0.313-0.581-0.248-0.92 0.117-0.622-0.263-0.807-0.169-1.461l0.014-0.015v-0.002c0.008-0.009 0.083-0.098 0.105-0.126 0.805 0.351 1.193 1.003 1.177 1.2zM12.79 16.314c0.366 0.258 0.821 0.413 1.312 0.413 0.47 0 0.906-0.141 1.269-0.383l-0.008 0.005c0.052 0.514 0.252 0.617 0.182 0.995-0.012 0.059-0.021 0.13-0.025 0.203l-0 0.005-1.386 1.562-1.771-1.997 0.428-0.223v-0.579zM12.233 14.403v-2.387c0.215-0.399 0.51-0.688 0.875-0.862 0.978 0.554 2.105 1.38 2.86 2.212-0.001 1.059 0.003 1.062-0.004 1.149l-0 0.006c-0.059 0.962-0.85 1.759-1.864 1.759-0.986 0-1.804-0.774-1.863-1.768-0.002-0.028-0.003-0.061-0.003-0.093 0-0.005 0-0.010 0-0.015v0.001zM11.957 17.332l2.177 2.454 1.462-1.647c0.033 0.096 0.080 0.187 0.134 0.275l-1.595 1.995-2.378-2.975 0.202-0.102zM16.414 14.043v-0.691l0.166-0.191c0.009 0.35 0.047-0.063-0.166 0.882zM13.798 9.415c0.089 0.006 1.276-0.181 2.215 0.833 0.037 0.046 0.801 1.031 0.494 2.108-0.105-0.479-0.288-1.094-0.578-1.386l-0.316 0.315c0.286 0.289 0.474 1.171 0.545 1.628-1.311-1.372-3.002-2.24-3.026-2.254-0.085 0.053-0.8 0.189-1.32 1.199l-0.025 0.048v0.742l-0.066 0.001c-0.33-1.594 0.302-2.861 2.076-3.233zM11.675 13.108l0.112 0.456v0.479l-0.187-0.757c-0.028-0.113 0.056-0.155 0.074-0.178zM11.347 17.638l2.786 3.485 1.885-2.358c0.205 0.184 0.304 0.21 0.738 0.433l-0.146-0.498c-0.037-0.126 0.11-0.329 0.199-0.422 0.2-0.11 0.364-0.262 0.485-0.446l0.003-0.005 1.538 0.772-1.432 3.277v0.949h-6.542v-0.949l-1.432-3.277 1.917-0.962zM9.071 18.891l1.346 3.080v0.854h-2.035c-0.010-0.68 0.015-2.815 0.689-3.934z"></path>
<path fill="none" stroke="#ff6b09" stroke-width="0.6154" stroke-miterlimit="4" stroke-linecap="butt" stroke-linejoin="miter" style="stroke: var(--color2, #ff6b09)" d="M31.077 4.615v-4.308h-30.769v31.385h30.769v-4.308"></path>
</symbol>
<symbol id="advantages-2" viewBox="0 0 31 32">
<path fill="#ff6b09" style="fill: var(--color2, #ff6b09)" d="M20.406 8.558h-7.116c-0.464 0.001-0.839 0.376-0.84 0.84v2.946l-5.287 2.219c-0.063 0.027-0.106 0.088-0.106 0.159 0 0.062 0.033 0.117 0.083 0.147l0.001 0 0.674 0.403v4.3c-0.348 0.082-0.603 0.389-0.603 0.756v0.415c0 0.095 0.077 0.172 0.172 0.172h1.207c0.095 0 0.172-0.077 0.172-0.172v0-0.414c0-0.369-0.259-0.677-0.604-0.756v-4.094l0.533 0.319c-0.017 0.123-0.002-0.214-0.008 2.002 0 0.729 1.866 1.119 3.765 1.141v3.356c0 0.463 0.376 0.839 0.839 0.839 0 0 0 0 0.001 0h7.116c0.463-0 0.839-0.376 0.839-0.839v-0c0 0.023-0.001-0.711 0-12.898 0-0.457-0.378-0.84-0.839-0.84zM8.419 20.328v0.242h-0.862v-0.242c0-0.238 0.193-0.433 0.43-0.433s0.432 0.194 0.432 0.433zM20.406 22.79h-7.116c-0.171 0-0.322-0.086-0.411-0.218-0.053-0.077-0.085-0.173-0.085-0.276 0-0 0-0.001 0-0.001v0-1.163h8.105v1.164c0 0.27-0.225 0.494-0.494 0.494zM20.9 20.788h-8.105v-1.847c0.927-0.010 3.767-0.215 3.767-1.142-0.001-1.392 0.002-1.957-0.004-2.005l1.546-0.926c0.050-0.031 0.083-0.085 0.083-0.148 0-0.071-0.043-0.132-0.104-0.158l-0.001-0-5.286-2.219v-1.438h8.105v9.883zM12.622 16.656c-0.955 0-2.794 0.123-3.592 0.645 0.005-1.595-0.055-1.491 0.141-1.627 0.496-0.365 1.916-0.62 3.451-0.62 0.67 0 3.595 0.184 3.595 0.803v1.444c-0.806-0.526-2.636-0.645-3.595-0.645zM12.794 9.398c0-0.273 0.222-0.495 0.495-0.495 0 0 0 0 0 0h7.116c0.273 0 0.494 0.225 0.494 0.495v1.163h-8.105v-1.163zM12.622 12.644l5.012 2.104-1.242 0.743c-0.66-0.655-2.844-0.782-3.77-0.782-0.927 0-3.111 0.127-3.77 0.782l-1.242-0.743 5.012-2.104zM9.030 17.799c0-0.279 1.234-0.799 3.592-0.799 2.36 0 3.595 0.52 3.595 0.799s-1.235 0.799-3.595 0.799c-2.358 0-3.592-0.52-3.592-0.799z"></path>
<path fill="#ff6b09" style="fill: var(--color2, #ff6b09)" d="M16.848 21.392c-0.314 0-0.569 0.255-0.569 0.57s0.255 0.57 0.569 0.57 0.569-0.255 0.569-0.57c0-0.314-0.255-0.569-0.569-0.569zM16.848 22.186c-0.118-0.008-0.211-0.106-0.211-0.225s0.093-0.217 0.21-0.225l0.001-0c0.121 0.005 0.217 0.104 0.217 0.225s-0.096 0.22-0.216 0.225h-0zM17.505 9.56h-1.314v0.344h1.314v-0.344z"></path>
<path fill="none" stroke="#ff6b09" stroke-width="0.6154" stroke-miterlimit="4" stroke-linecap="butt" stroke-linejoin="miter" style="stroke: var(--color2, #ff6b09)" d="M31.077 4.615v-4.308h-30.769v31.385h30.769v-4.308"></path>
</symbol>
<symbol id="advantages-3" viewBox="0 0 31 32">
<path fill="#ff6b09" style="fill: var(--color2, #ff6b09)" d="M7.942 14.958c0 0.165-0.25 0.165-0.25 0 0-3.502 2.84-6.342 6.342-6.342 3.504 0 6.342 2.84 6.342 6.342 0 0.165-0.249 0.165-0.249 0 0-2.367-3.89-2.369-3.89 0 0 0.165-0.256 0.165-0.256 0 0-2.361-3.896-2.361-3.896 0 0 0.165-0.256 0.165-0.256 0 0-2.357-3.888-2.373-3.888 0zM11.853 14.038c0.068-1.362 0.282-2.584 0.593-3.517 0.249-0.742 0.563-1.304 0.919-1.62-2.674 0.292-4.839 2.319-5.323 4.949 0.921-1.328 3.047-1.222 3.811 0.189zM15.963 13.977c-0.069-1.31-0.277-2.482-0.577-3.376-0.772-2.314-1.931-2.314-2.704 0-0.299 0.894-0.506 2.066-0.576 3.376 0.831-1.412 3.026-1.412 3.857 0zM20.027 13.85c-0.482-2.629-2.647-4.657-5.323-4.949 0.358 0.316 0.671 0.879 0.919 1.62 0.311 0.933 0.526 2.154 0.593 3.517 0.768-1.418 2.9-1.502 3.811-0.189zM13.202 17.86v-1.288c-0.232 0.154-0.414 0.392-0.414 0.683 0 0.283 0.186 0.47 0.414 0.605zM13.452 18.26c-0.445-0.204-0.913-0.442-0.913-1.005 0-0.581 0.442-0.872 0.913-1.089v2.094zM14.867 19.803v1.303c0.235-0.156 0.419-0.395 0.419-0.686 0-0.286-0.189-0.479-0.419-0.617zM14.619 19.402c0.446 0.206 0.918 0.452 0.918 1.018 0 0.582-0.445 0.873-0.918 1.089v-2.107z"></path>
<path fill="#ff6b09" style="fill: var(--color2, #ff6b09)" d="M14.867 15.106c1.024 0.237 2.077 1.003 2.077 2.149 0 0.981-1.658 0.945-1.658 0 0-0.292-0.184-0.532-0.419-0.686v1.833c0.948 0.31 2.080 0.865 2.080 2.018 0 1.147-1.053 1.912-2.080 2.147-0.004 1.091-1.662 1.090-1.665-0.002-0.584-0.135-1.092-0.407-1.458-0.768-0.385-0.38-0.612-0.858-0.612-1.378 0-0.966 1.656-0.966 1.656 0 0 0.289 0.182 0.527 0.415 0.682v-1.831c-0.94-0.304-2.078-0.876-2.078-2.018 0-1.147 1.053-1.912 2.078-2.147 0.004-1.092 1.662-1.090 1.665 0.002zM13.452 15.109v0.199c-0.975 0.193-2.080 0.818-2.080 1.943 0 1.083 1.213 1.568 2.080 1.836v2.42c-0.469-0.214-0.914-0.503-0.914-1.087 0-0.638-1.159-0.638-1.159 0 0 0.451 0.201 0.867 0.539 1.199 0.43 0.425 0.951 0.628 1.533 0.743v0.201c0 0.768 1.166 0.768 1.166 0v-0.199c0.978-0.195 2.078-0.819 2.078-1.944 0-1.093-1.21-1.563-2.078-1.837v-2.418c0.47 0.214 0.918 0.503 0.918 1.090 0 0.622 1.157 0.647 1.157 0 0-1.125-1.099-1.75-2.075-1.945v-0.201c0-0.768-1.166-0.768-1.166 0z"></path>
<path fill="none" stroke="#ff6b09" stroke-width="0.6154" stroke-miterlimit="4" stroke-linecap="butt" stroke-linejoin="miter" style="stroke: var(--color2, #ff6b09)" d="M31.077 4.615v-4.308h-30.769v31.385h30.769v-4.308"></path>
</symbol>
<symbol id="audio-book" viewBox="0 0 39 32">
<path d="M3.047 29.453h12.23c0.618 1.262 1.893 2.115 3.367 2.115 0.005 0 0.009 0 0.014-0h0.773c0.004 0 0.009 0 0.014 0 1.474 0 2.748-0.854 3.356-2.093l0.010-0.022h12.237c1.262-0.001 2.285-1.024 2.286-2.286v-21.905c-0.002-1.262-1.024-2.284-2.286-2.285h-1.234v-1.021c-0.001-0.841-0.683-1.523-1.524-1.523h-26.491c-0.841 0.001-1.523 0.682-1.524 1.523v1.021h-1.227c-1.262 0.001-2.285 1.023-2.287 2.285v21.905c0.001 1.262 1.024 2.285 2.287 2.286h0zM32.287 24.751h-12.477v-17.705c2.885 0.377 5.121 2.845 5.121 5.831v0.687l-0.181-0.040c-0.049-0.011-0.106-0.018-0.164-0.018-0.363 0-0.666 0.253-0.743 0.593l-0.001 0.005-1.213 5.52c-0.011 0.049-0.018 0.105-0.018 0.163 0 0.362 0.253 0.666 0.593 0.743l0.005 0.001 2.621 0.578c0.136 0.029 0.273 0.043 0.411 0.043 0.921 0 1.707-0.631 1.907-1.535l0.702-3.192c0.029-0.125 0.045-0.269 0.045-0.417 0-0.929-0.648-1.706-1.517-1.904l-0.013-0.003-0.912-0.201v-1.023c0-3.827-2.917-6.987-6.645-7.371v-3.551h12.48l-0.001 22.796zM25.167 15.177l1.871 0.412c0.233 0.052 0.377 0.275 0.325 0.508l-0.702 3.191c-0.051 0.231-0.306 0.374-0.507 0.331l-1.873-0.413 0.886-4.029zM5.799 1.955h12.487v3.55c-3.731 0.381-6.651 3.542-6.651 7.372v1.022l-0.913 0.202c-0.517 0.115-0.947 0.425-1.218 0.846l-0.005 0.008c-0.193 0.295-0.307 0.657-0.307 1.045 0 0.15 0.017 0.297 0.050 0.437l-0.003-0.013 0.7 3.189c0.199 0.887 0.98 1.539 1.913 1.539 0.146 0 0.288-0.016 0.425-0.046l-0.013 0.002 2.61-0.577c0.344-0.078 0.598-0.381 0.598-0.744 0-0.058-0.006-0.114-0.018-0.168l0.001 0.005-1.213-5.519c-0.077-0.345-0.381-0.598-0.743-0.598-0.058 0-0.115 0.007-0.17 0.019l0.005-0.001-0.174 0.038v-0.685c0-2.988 2.24-5.458 5.128-5.832v17.707h-12.488v-22.797zM12.916 15.177l0.887 4.029-1.863 0.411c-0.027 0.006-0.058 0.009-0.090 0.009-0.205 0-0.377-0.143-0.421-0.334l-0.001-0.003-0.702-3.196c-0.007-0.028-0.011-0.060-0.011-0.094 0-0.084 0.025-0.161 0.067-0.227l-0.001 0.002c0.061-0.094 0.155-0.161 0.265-0.186l0.003-0.001 1.867-0.412zM2.286 5.262c0-0.42 0.341-0.762 0.761-0.762h1.227v20.251c0.001 0.842 0.683 1.524 1.525 1.524h26.491c0.841-0.001 1.523-0.682 1.524-1.523v-20.252h1.234c0.421 0 0.762 0.342 0.762 0.762v21.905c0 0.42-0.341 0.762-0.762 0.762h-12.754c-0.335 0-0.631 0.219-0.729 0.539-0.285 0.92-1.129 1.577-2.126 1.577-0.003 0-0.006 0-0.009-0h-0.772c-0.001 0-0.002 0-0.004 0-1.002 0-1.849-0.661-2.13-1.571l-0.004-0.016c-0.101-0.31-0.388-0.529-0.725-0.529h-12.747c-0.421 0-0.762-0.342-0.762-0.762v-21.905z"></path>
</symbol>
<symbol id="female-student" viewBox="0 0 27 32">
<path d="M-0.103 31.759h26.785c0.133-3.055-0.087-8.123-1.964-10.535l-0.068-0.087-4.104-2.060c0.089-0.301 0.133-0.576 0.151-0.779 0.004-0.041 0.007-0.089 0.007-0.137 0-0.195-0.039-0.381-0.11-0.55l0.003 0.009c-0.677-1.62-2.109-2.472-2.897-2.835 0.24-0.484 0.395-1.003 0.469-1.534 0.456-0.131 0.805-0.489 0.921-0.942l0.002-0.009 0.479-1.947c0.025-0.096 0.039-0.206 0.039-0.319 0-0.252-0.071-0.488-0.194-0.688l0.003 0.006c-0.080-0.13-0.178-0.24-0.291-0.332l-0.002-0.002c1.35-3.068-0.912-5.96-1.035-6.113-2.449-2.648-5.544-2.153-5.708-2.123-4.466 0.935-6.189 4.358-5.216 8.372-0.211 0.233-0.34 0.543-0.34 0.884 0 0.112 0.014 0.221 0.040 0.325l-0.002-0.009 0.481 1.949c0.117 0.468 0.473 0.82 0.915 0.947 0.142 0.989 0.554 1.863 1.158 2.567l-0.006-0.007v1.543c-6.409 3.282-2.348 1.188-7.485 3.787-0.010 0.048-2.409 2.599-2.053 10.158l0.022 0.462zM25.751 30.789h-4.408v-1.852l2.915-6.675c1.461 2.425 1.515 7.053 1.493 8.527zM19.735 18.216c-0.17 1.955-1.241 1.364-1.903 2.869-0.52-0.572-0.677-1.258-0.537-1.993 0.253-1.349-0.571-1.749-0.367-3.166l0.031-0.032v-0.005c0.017-0.020 0.18-0.213 0.227-0.274 1.744 0.76 2.584 2.174 2.55 2.6zM10.379 16.681c0.793 0.559 1.778 0.894 2.842 0.894 1.017 0 1.963-0.306 2.75-0.831l-0.018 0.011c0.112 1.113 0.547 1.337 0.393 2.157-0.025 0.128-0.045 0.282-0.054 0.439l-0 0.010-3.002 3.383-3.838-4.327 0.927-0.483v-1.254zM9.172 12.539v-5.172c0.467-0.864 1.104-1.491 1.895-1.867 2.12 1.2 4.56 2.99 6.197 4.792-0.002 2.294 0.007 2.3-0.009 2.489l-0.001 0.012c-0.128 2.084-1.841 3.811-4.038 3.811-2.135 0-3.909-1.677-4.037-3.831-0.005-0.063-0.008-0.136-0.008-0.21 0-0.008 0-0.016 0-0.024v0.001zM8.574 18.886l4.716 5.317 3.167-3.569c0.072 0.209 0.173 0.405 0.289 0.596l-3.456 4.322-5.153-6.446 0.437-0.22zM18.23 11.759v-1.498l0.36-0.413c0.020 0.759 0.102-0.136-0.36 1.911zM12.561 1.733c0.192 0.012 2.765-0.391 4.799 1.805 0.080 0.1 1.736 2.233 1.071 4.567-0.228-1.039-0.625-2.369-1.252-3.004l-0.685 0.683c0.619 0.627 1.027 2.537 1.181 3.527-2.84-2.972-6.504-4.853-6.555-4.885-0.183 0.114-1.734 0.409-2.86 2.598l-0.053 0.104v1.608l-0.143 0.001c-0.715-3.455 0.655-6.199 4.497-7.004zM7.963 9.735l0.243 0.987v1.038l-0.405-1.64c-0.060-0.244 0.121-0.337 0.161-0.385zM7.253 19.549l6.037 7.551 4.085-5.109c0.445 0.398 0.658 0.454 1.6 0.939l-0.317-1.078c-0.081-0.273 0.239-0.713 0.431-0.914 0.433-0.238 0.789-0.568 1.050-0.966l0.007-0.011 3.333 1.673-3.102 7.1v2.055h-14.175v-2.055l-3.103-7.099 4.153-2.085zM2.32 22.265l2.916 6.673v1.851h-4.408c-0.022-1.473 0.033-6.1 1.492-8.525z"></path>
</symbol>
<symbol id="mobile-learning" viewBox="0 0 33 32">
<path d="M30.175-0.128h-15.746c-1.026 0.001-1.858 0.833-1.859 1.859v6.519l-11.699 4.909c-0.139 0.059-0.235 0.194-0.235 0.352 0 0.139 0.074 0.26 0.185 0.326l0.002 0.001 1.492 0.893v9.516c-0.77 0.181-1.334 0.861-1.335 1.673v0.917c0 0.211 0.17 0.381 0.381 0.381h2.671c0.211 0 0.381-0.171 0.381-0.381v0-0.917c0-0.816-0.573-1.498-1.337-1.673v-9.060l1.18 0.706c-0.037 0.272-0.005-0.474-0.017 4.43 0 1.612 4.129 2.476 8.33 2.525v7.425c0 1.025 0.832 1.856 1.857 1.856 0 0 0.001 0 0.001 0h15.745c1.025-0.001 1.857-0.832 1.857-1.857v-0c0 0.051-0.002-1.573 0-28.539 0-1.012-0.836-1.859-1.856-1.859zM3.651 25.918v0.537h-1.908v-0.537c0-0.528 0.427-0.957 0.952-0.957 0.528 0 0.957 0.43 0.957 0.957zM30.175 31.364h-15.746c-0.378 0-0.711-0.191-0.909-0.481-0.117-0.171-0.187-0.383-0.187-0.61 0-0.001 0-0.001 0-0.002v0-2.574h17.934v2.575c0 0.596-0.497 1.092-1.092 1.092zM31.267 26.935h-17.935v-4.086c2.051-0.023 8.335-0.475 8.335-2.527-0.003-3.080 0.005-4.33-0.010-4.436l3.421-2.049c0.111-0.068 0.184-0.189 0.184-0.326 0-0.157-0.095-0.292-0.23-0.35l-0.002-0.001-11.698-4.91v-3.182h17.935v21.868zM12.951 17.792c-2.113 0-6.182 0.273-7.949 1.427 0.011-3.53-0.123-3.3 0.312-3.6 1.098-0.808 4.239-1.373 7.637-1.373 1.482 0 7.954 0.407 7.954 1.777v3.196c-1.784-1.165-5.832-1.428-7.954-1.428zM13.332 1.731c0.001-0.605 0.491-1.095 1.096-1.095 0 0 0 0 0 0h15.745c0.605 0 1.093 0.498 1.093 1.095v2.574h-17.934v-2.574zM12.951 8.915l11.090 4.655-2.748 1.644c-1.461-1.449-6.294-1.729-8.342-1.729-2.051 0-6.884 0.281-8.342 1.729l-2.749-1.644 11.091-4.655zM5.002 20.321c0-0.616 2.73-1.768 7.949-1.768 5.222 0 7.954 1.151 7.954 1.767s-2.732 1.768-7.954 1.768c-5.219 0-7.949-1.151-7.949-1.768z"></path>
<path d="M22.301 28.271c-0.694 0-1.26 0.565-1.26 1.26s0.565 1.26 1.26 1.26 1.26-0.565 1.26-1.26c0-0.694-0.565-1.26-1.26-1.26zM22.301 30.030c-0.264-0.014-0.473-0.232-0.473-0.498s0.209-0.484 0.472-0.498l0.001-0c0.275 0 0.498 0.223 0.498 0.498s-0.223 0.498-0.498 0.498v0zM23.755 2.090h-2.907v0.762h2.907v-0.762z"></path>
</symbol>
<symbol id="study-program" viewBox="0 0 31 32">
<path d="M30.151 4.961l-0.001-0.003c-0.007-0.017-0.015-0.032-0.025-0.046l0.001 0.001-0.003-0.003c-0.010-0.016-0.021-0.029-0.033-0.042l-4.807-4.806c-0.012-0.012-0.025-0.023-0.039-0.032l-0.001-0.001c-0.003-0.002-0.007-0.003-0.009-0.006-0.010-0.006-0.022-0.013-0.034-0.019l-0.002-0.001-0.011-0.004c-0.029-0.012-0.063-0.019-0.098-0.020h-21.177c-0.157 0-0.283 0.127-0.283 0.284 0 0 0 0 0 0v0 29.311c0 0.019 0.001 0.037 0.005 0.055l0.007 0.023 0.010 0.030c0.003 0.009 0.009 0.017 0.013 0.025 0.004 0.007 0.007 0.016 0.013 0.023 0.010 0.015 0.021 0.028 0.033 0.040l2.167 2.167c0.051 0.051 0.122 0.083 0.201 0.083s0.149-0.032 0.201-0.083v0l1.965-1.964 1.964 1.964c0.051 0.052 0.122 0.084 0.201 0.084s0.15-0.032 0.201-0.084l1.963-1.963 1.965 1.963c0.051 0.051 0.122 0.083 0.201 0.083s0.149-0.032 0.201-0.083v0l1.963-1.963 1.964 1.963c0.051 0.051 0.122 0.083 0.201 0.083s0.149-0.032 0.201-0.083v0l1.965-1.964 1.964 1.964c0.051 0.052 0.122 0.084 0.201 0.084s0.149-0.032 0.201-0.084l1.964-1.963 1.965 1.963c0.051 0.051 0.122 0.083 0.201 0.083s0.149-0.032 0.201-0.083v0l2.165-2.165 0.011-0.013c0.008-0.009 0.017-0.019 0.024-0.029 0.007-0.009 0.011-0.020 0.016-0.030 0.004-0.007 0.007-0.012 0.009-0.019 0.007-0.013 0.009-0.027 0.013-0.040l0.005-0.013c0.003-0.017 0.005-0.036 0.005-0.056 0-0 0-0.001 0-0.001v0-24.503c-0.001-0.039-0.009-0.077-0.023-0.111l0.001 0.002zM25.367 0.949l3.836 3.835h-3.836v-3.835zM29.604 29.456l-1.88 1.88-1.965-1.964c-0.051-0.051-0.122-0.083-0.201-0.083s-0.149 0.032-0.201 0.083v0l-1.963 1.964-1.964-1.964c-0.051-0.051-0.122-0.083-0.201-0.083s-0.149 0.032-0.201 0.083v0l-1.965 1.964-1.963-1.964c-0.051-0.052-0.122-0.084-0.201-0.084s-0.15 0.032-0.201 0.084v0l-1.963 1.964-1.965-1.964c-0.052-0.051-0.123-0.083-0.201-0.083s-0.149 0.032-0.201 0.083v0l-1.963 1.964-1.964-1.964c-0.052-0.051-0.123-0.083-0.201-0.083s-0.149 0.032-0.201 0.083v0l-1.964 1.964-1.88-1.88v-28.909h20.603v4.522c0 0.157 0.127 0.284 0.284 0.284h4.521v24.103z"></path>
<path d="M6.313 3.234h9.303c0.157 0 0.284-0.127 0.284-0.284s-0.127-0.284-0.284-0.284h-9.303c-0.157 0-0.284 0.127-0.284 0.284s0.127 0.284 0.284 0.284v0zM6.313 4.991h14.92c0.157 0 0.284-0.127 0.284-0.284s-0.127-0.284-0.284-0.284h-14.92c-0.157 0-0.284 0.127-0.284 0.284s0.127 0.284 0.284 0.284v0zM6.029 6.568v9.199c0 0.157 0.127 0.284 0.285 0.284h21.172c0.157 0 0.284-0.127 0.284-0.284v0-9.199c0-0.157-0.127-0.284-0.284-0.284v0h-21.173c-0 0-0 0-0.001 0-0.157 0-0.284 0.127-0.284 0.284 0 0 0 0 0 0v0zM12.308 6.852h14.893v2.445h-14.893v-2.445zM12.308 9.865h14.893v2.444h-14.893v-2.444zM12.308 12.877h14.893v2.605h-14.893v-2.605zM6.598 6.852h5.142v2.445h-5.142v-2.445zM6.598 9.865h5.142v2.444h-5.142v-2.444zM6.598 12.877h5.142v2.605h-5.142v-2.605zM27.486 17.329h-21.173c-0 0-0 0-0.001 0-0.157 0-0.284 0.127-0.284 0.284 0 0 0 0 0 0v0 9.198c0 0.157 0.127 0.284 0.284 0.284s0.284-0.127 0.284-0.284v-2.889h5.143v2.889c0 0.157 0.127 0.284 0.284 0.284s0.284-0.127 0.284-0.284v0-2.889h14.893v2.889c0 0.157 0.127 0.284 0.284 0.284s0.284-0.127 0.284-0.284v0-9.198c0-0 0-0.001 0-0.001 0-0.156-0.127-0.283-0.283-0.283-0 0-0 0-0.001 0h0zM11.74 23.353h-5.142v-2.443h5.142v2.443zM11.74 20.341h-5.142v-2.444h5.142v2.444zM27.201 23.353h-14.893v-2.443h14.893v2.443zM27.201 20.341h-14.893v-2.444h14.893v2.444zM2.281-0.021c-0.157 0-0.284 0.127-0.284 0.284v29.311c0 0.157 0.127 0.284 0.284 0.284s0.284-0.127 0.284-0.284v0-29.311c0-0.157-0.127-0.284-0.284-0.284v0zM0.718-0.021c-0.157 0-0.284 0.127-0.284 0.284v29.311c0 0.157 0.127 0.284 0.284 0.284s0.284-0.127 0.284-0.284v0-29.311c0-0.157-0.127-0.284-0.284-0.284v0z"></path>
</symbol>
<symbol id="community" viewBox="0 0 33 32">
<path d="M1.993 12.558v2.831c0 0.152 0.069 0.295 0.189 0.39 1.864 1.471 4.246 2.36 6.836 2.362h0c0.741 0 1.482-0.077 2.207-0.224 1.433 0.652 3.108 1.032 4.872 1.032 0.006 0 0.012 0 0.019 0h-0.001c1.707 0 3.351-0.349 4.89-1.032 3.091 0.625 6.385-0.046 9.043-2.138 0.116-0.092 0.189-0.232 0.189-0.39v0-2.831c0-0.415-0.207-0.794-0.575-1.027l-3.867-2.176c0.846-1.073 1.476-2.602 1.586-3.913 0.321-2.256-1.519-4.646-4.166-4.646-1.113 0-2.171 0.459-2.947 1.227-0.027 0.027-0.058 0.049-0.084 0.077-0.024 0.025-0.043 0.054-0.067 0.080-0.015 0.017-0.029 0.035-0.044 0.053-0.757-1.381-2.211-2.233-3.925-2.233-0.167 0-0.329 0.011-0.491 0.028-0.010-0.001-0.019-0.006-0.029-0.006-0.092 0-0.287 0.025-0.391 0.055-0.015 0.004-0.027 0.015-0.041 0.021-1.296 0.262-2.369 1.054-3.002 2.135l-0.011 0.021c-0.77-0.894-1.904-1.457-3.169-1.457-0.003 0-0.007 0-0.010 0h0.001c-3.908 0-5.642 4.612-2.557 8.581l-3.903 2.167c-0.347 0.219-0.553 0.599-0.553 1.014zM20.997 16.828c-0.084 0.041-0.167 0.085-0.251 0.123l-0.002 0.001c-1.349 0.635-2.929 1.006-4.596 1.006-0.011 0-0.022-0-0.033-0h0.002c-0.007 0-0.016 0-0.025 0-2.509 0-4.823-0.837-6.677-2.248l0.027 0.020v-2.87c0-0.097 0.047-0.184 0.102-0.221l4.542-2.525c0.565 0.48 1.287 0.832 2.035 0.832 0.72 0 1.499-0.357 2.052-0.843l4.487 2.52c0.083 0.053 0.131 0.139 0.131 0.237v2.87c-0.52 0.395-1.108 0.76-1.729 1.069l-0.064 0.029zM29.154 12.381c0.056 0.037 0.092 0.099 0.092 0.169 0 0.003-0 0.005-0 0.008v-0 2.587c-1.969 1.477-4.337 2.148-6.737 1.98 0.419-0.265 0.772-0.515 1.111-0.782l-0.028 0.022c0.116-0.092 0.19-0.232 0.19-0.39v-3.115c0-0.435-0.219-0.835-0.611-1.087l-2.383-1.339 0.58-0.321c0.703 0.573 1.307 0.744 1.848 0.744 0.663 0 1.36-0.325 1.878-0.759l4.060 2.284zM23.216 1.788c1.381 0 2.593 0.902 3.021 2.142-0.889-0.115-1.664-0.531-2.235-1.14l-0.002-0.002c-0.091-0.097-0.22-0.158-0.363-0.158-0.18 0-0.338 0.096-0.425 0.24l-0.001 0.002c-0.546 0.916-1.456 1.567-2.524 1.757l-0.022 0.003-0.001-0.003c0-0.025 0.001-0.054 0.001-0.083 0-0.201-0.012-0.399-0.036-0.594l0.002 0.023-0.007-0.066c-0.034-0.24-0.076-0.446-0.13-0.647l0.009 0.038c0.563-0.902 1.609-1.513 2.713-1.513zM20.556 5.643c1.291-0.143 2.407-0.797 3.157-1.751l0.008-0.010c0.767 0.629 1.74 1.010 2.701 1.056-0.007 1.792-1.471 4.927-3.206 4.927-1.337 0-2.479-1.912-2.905-3.238 0.109-0.341 0.187-0.669 0.245-0.983zM20.657 9.373l-0.886 0.491-0.895-0.503c0.332-0.413 0.636-0.893 0.897-1.413 0.25 0.527 0.551 1.010 0.884 1.425zM19.32 6.465c-0.478 1.427-1.705 3.49-3.2 3.49-1.742 0-3.225-2.864-3.508-4.696 0.075-0.019 2.429 0.127 4.049-2.001 0.823 0.688 1.932 1.143 3.011 1.188 0.013 0.647-0.144 1.407-0.352 2.019zM16.149 0.991c2.78 0 3.309 2.393 3.353 2.443-1.017-0.113-1.908-0.58-2.561-1.274l-0.002-0.002c-0.091-0.097-0.219-0.157-0.362-0.157-0.181 0-0.339 0.097-0.426 0.242l-0.001 0.002c-0.533 0.901-1.379 1.569-2.385 1.86l-0.029 0.007c-0.342 0.097-0.734 0.153-1.14 0.153-0.009 0-0.019-0-0.028-0h0.001c0.136-1.821 1.596-3.273 3.58-3.273zM12.461 7.938c0.257 0.515 0.563 1.007 0.913 1.439l-0.875 0.487-0.907-0.51c0.321-0.411 0.61-0.876 0.849-1.369l0.020-0.046zM9.006 1.788c1.125 0 2.155 0.571 2.729 1.514-0.029 0.1-0.107 0.498-0.117 0.548-0.723-0.179-1.343-0.552-1.819-1.061l-0.002-0.002c-0.091-0.097-0.219-0.157-0.362-0.157-0.181 0-0.339 0.097-0.425 0.242l-0.001 0.002c-0.657 1.090-1.832 1.81-3.177 1.815h-0.001c0.158-1.627 1.518-2.9 3.174-2.9zM5.876 5.677c1.475-0.018 2.784-0.712 3.635-1.786l0.007-0.010c0.57 0.468 1.265 0.806 2.027 0.956l0.029 0.005c0.029 0.575 0.179 1.273 0.35 1.789-0.273 0.84-0.799 1.84-1.451 2.505-0.004 0.004-0.009 0.006-0.013 0.010-0.408 0.43-0.988 0.719-1.444 0.719-1.594 0-2.841-2.508-3.14-4.188zM2.985 12.558c0-0.075 0.033-0.139 0.067-0.162l4.116-2.284c0.247 0.206 0.304 0.229 0.353 0.265 0.485 0.323 0.929 0.483 1.534 0.483 0.645 0 1.233-0.273 1.749-0.694 0.029-0.023 0.060-0.045 0.088-0.068l0.587 0.33-2.447 1.361c-0.353 0.229-0.584 0.622-0.584 1.069 0 0.001 0 0.002 0 0.003v-0 3.115c0 0.152 0.070 0.295 0.19 0.389 0.317 0.249 0.727 0.539 1.083 0.761-2.434 0.167-4.803-0.528-6.737-1.98v-2.587z"></path>
<path d="M31.259 20.781c-0.312-0.2-0.693-0.319-1.102-0.319-0.329 0-0.641 0.077-0.917 0.215l0.012-0.005-6.12 2.957c-0.022-1.147-0.956-2.069-2.106-2.071l-3.51 0.001c-1.73-1.504-3.941-2.425-5.952-2.473-1.983-0.047-3.762-0.060-4.592-0.064v-1.002h-6.972v11.517h6.972v-1.379c1.911 1.098 6.939 3.845 9.325 3.845 0.053 0 0.107-0.001 0.157-0.005 4.196-0.235 14.091-7.198 14.743-7.66 0.622-0.367 1.033-1.033 1.034-1.796v-0c0-0.002 0-0.004 0-0.006 0-0.736-0.385-1.382-0.965-1.747l-0.009-0.005zM5.98 28.543h-4.988v-9.533h4.988v9.533zM30.687 23.485c-0.017 0.009-0.031 0.018-0.045 0.028l0.001-0.001c-0.103 0.073-10.281 7.271-14.245 7.493-0.035 0.002-0.077 0.003-0.12 0.003h-0c-2.093 0-7.195-2.753-9.307-4.001v-6.997c0.827 0.003 2.596 0.017 4.569 0.063 1.837 0.045 3.876 0.921 5.455 2.346l0.141 0.128 3.888-0.001c0.618 0.001 1.118 0.501 1.119 1.119v0c-0 0.618-0.501 1.119-1.119 1.119h-7.142v0.991h7.142c0.685 0 1.288-0.333 1.673-0.839l6.984-3.373c0.138-0.070 0.301-0.112 0.474-0.112 0.214 0 0.413 0.063 0.579 0.172l-0.004-0.003c0.323 0.202 0.508 0.537 0.508 0.918-0.001 0.404-0.221 0.756-0.548 0.943l-0.005 0.003zM16.611 12.159h-0.991v0.92h0.991v-0.92zM16.611 13.992h-0.991v0.92h0.991v-0.92zM16.611 15.827h-0.991v0.919h0.991v-0.92z"></path>
</symbol>
<symbol id="fire" viewBox="0 0 23 32">
<path d="M21.909 16.593c-0.285-0.636-0.675-1.261-1.248-1.984-1.442-1.813-1.882-5.856-1.887-5.895-0.022-0.194-0.155-0.353-0.334-0.411l-0.003-0.001c-0.045-0.015-0.096-0.023-0.15-0.023-0.146 0-0.277 0.063-0.368 0.164l-0 0c-1.721 1.924-0.997 4.896-0.606 6.084 0.107 0.325 0.224 0.708 0.308 1.097 0.635 3.136-0.592 4.557-0.88 4.843-0.279 0.078-0.469 0.039-0.645-0.149-0.607-0.665-0.807-2.842-0.523-5.678 0.023-0.194 0.036-0.419 0.036-0.647 0-0.33-0.027-0.653-0.080-0.968l0.005 0.034c-0.598-3.486-2.791-5.723-3.349-6.507-1.536-2.269-1.692-6.046-1.696-6.080-0.011-0.261-0.225-0.468-0.488-0.468-0.102 0-0.198 0.032-0.276 0.086l0.002-0.001c-2.562 1.742-2.342 5.936-1.985 8.277 0.083 0.544 0.244 1.095 0.523 1.794 0.992 2.496-0.195 5.722-0.205 5.749-0.011 0.030-0.020 0.053-0.025 0.083-0.151 0.796-0.405 1.27-0.69 1.27-0.033-0.001-0.065-0.006-0.095-0.016l0.002 0.001c-0.347-0.073-0.528-0.441-0.533-0.761-0.019-4.135-4.17-5.527-4.213-5.542s-0.096-0.023-0.149-0.023c-0.147 0-0.279 0.066-0.369 0.169l-0.001 0.001c-0.075 0.084-0.12 0.195-0.12 0.317 0 0.079 0.019 0.154 0.053 0.219l-0.001-0.003c0.049 0.101 0.205 0.547 0.098 2.123-0.102 1.521-0.376 2.939-0.803 4.288l0.035-0.128c-0.988 3.221-0.832 6.271-0.821 6.416 0.759 8.258 12.635 9.705 19.682 5.053 0.773-0.51 1.404-1.091 1.868-1.731 2.602-3.588 1.071-8.461-0.068-11.051zM3.843 24.48c0 0.008 0.001 0.016 0.001 0.025 0 0.259-0.203 0.471-0.459 0.484l-0.001 0h-0.030c-0.001 0-0.002 0-0.003 0-0.258 0-0.469-0.201-0.485-0.454l-0-0.001c-0.044-0.707-0.034-1.45 0.019-2.254 0.022-0.254 0.234-0.452 0.492-0.452 0.011 0 0.021 0 0.032 0.001l-0.001-0c0.256 0.017 0.456 0.229 0.456 0.487 0 0.011-0 0.022-0.001 0.032l0-0.001c-0.053 0.766-0.064 1.465-0.019 2.133zM4.082 20.185c-0.030 0.242-0.234 0.427-0.482 0.427-0.001 0-0.001 0-0.002 0h0c-0.020 0-0.039 0-0.064-0.005-0.243-0.032-0.428-0.237-0.428-0.486 0-0.018 0.001-0.036 0.003-0.054l-0 0.002 0.235-1.872c0.035-0.241 0.241-0.425 0.489-0.425 0.021 0 0.041 0.001 0.062 0.004l-0.002-0c0.269 0.034 0.459 0.276 0.425 0.543l-0.235 1.867z"></path>
</symbol>
<symbol id="big-fire" fill="none" xmlns="http://www.w3.org/2000/svg"><path d="M417.788 322.005c-5.498-12.326-13.081-24.463-24.171-38.483-27.964-35.19-36.495-113.662-36.59-114.414-.379-3.764-3.033-6.869-6.541-7.998a9.61 9.61 0 00-10.048 2.728c-33.366 37.355-19.337 95.032-11.754 118.085 2.086 6.304 4.361 13.737 5.971 21.264 12.323 60.877-11.47 88.446-17.062 93.997-5.403 1.505-9.1.753-12.513-2.917-11.754-12.89-15.64-55.137-10.143-110.18 1.139-11.197.854-21.265-.758-30.674-11.595-67.654-54.109-111.051-64.932-126.27-29.765-44.034-32.798-117.331-32.893-117.99-.095-3.481-2.085-6.586-5.213-8.092-3.034-1.505-6.731-1.317-9.574.659-49.671 33.779-45.406 115.167-38.486 160.613 1.612 10.538 4.74 21.265 10.143 34.814 19.243 48.457-3.792 111.027-3.981 111.592-.19.564-.379 1.034-.474 1.599-2.939 15.431-7.868 24.652-13.366 24.652-.569 0-1.137-.094-1.801-.282-6.73-1.412-10.237-8.563-10.332-14.773-.379-80.259-80.857-107.263-81.71-107.546-3.603-1.129-7.584-.094-10.049 2.823-2.559 2.917-3.033 6.963-1.327 10.35.948 1.976 3.982 10.632 1.896 41.212-1.8 27.475-6.825 54.667-14.882 80.73C-1.95 409.98 1.083 469.164 1.273 471.986c14.724 160.244 244.979 188.322 381.631 98.043 14.977-9.88 27.205-21.17 36.211-33.59 50.43-69.628 20.76-164.189-1.327-214.434zM67.533 475.091c.285 5.175-3.697 9.598-8.91 9.88h-.569c-5.024 0-9.195-3.858-9.48-8.845-.852-13.737-.663-28.133.38-43.752.38-5.175 4.93-9.033 10.143-8.751 5.213.376 9.195 4.892 8.815 10.067-1.043 14.868-1.232 28.417-.379 41.401zm4.644-83.364c-.569 4.798-4.645 8.28-9.384 8.28-.38 0-.759 0-1.233-.094-5.118-.659-8.815-5.27-8.247-10.444l4.55-36.32c.664-5.081 5.309-8.75 10.617-8.185 5.214.658 8.91 5.363 8.247 10.538l-4.55 36.225z" fill="#3D3D3D"/></symbol>
<symbol id="vk" viewBox="0 0 32 32">
<path fill="#436eab" style="fill: var(--color1, #436eab)" d="M27.541 18.46c1.061 1.036 2.182 2.011 3.134 3.152 0.421 0.507 0.819 1.030 1.123 1.619 0.432 0.836 0.041 1.757-0.709 1.807l-4.662-0.002c-1.202 0.1-2.162-0.384-2.968-1.206-0.645-0.657-1.243-1.357-1.864-2.037-0.255-0.278-0.521-0.539-0.839-0.746-0.636-0.413-1.189-0.287-1.552 0.377-0.37 0.675-0.454 1.423-0.491 2.175-0.050 1.098-0.382 1.386-1.484 1.437-2.357 0.111-4.593-0.245-6.671-1.434-1.832-1.048-3.252-2.528-4.489-4.203-2.407-3.261-4.25-6.845-5.907-10.53-0.373-0.83-0.1-1.276 0.816-1.291 1.521-0.030 3.041-0.027 4.564-0.002 0.618 0.009 1.027 0.364 1.266 0.947 0.823 2.023 1.83 3.948 3.093 5.732 0.337 0.475 0.68 0.95 1.168 1.284 0.541 0.37 0.952 0.248 1.207-0.355 0.161-0.382 0.232-0.793 0.268-1.202 0.121-1.407 0.136-2.812-0.075-4.214-0.13-0.875-0.623-1.442-1.496-1.607-0.446-0.084-0.379-0.25-0.164-0.505 0.375-0.439 0.727-0.712 1.43-0.712h5.269c0.829 0.164 1.014 0.536 1.127 1.371l0.004 5.852c-0.009 0.323 0.161 1.282 0.743 1.496 0.466 0.152 0.773-0.22 1.052-0.516 1.261-1.339 2.162-2.921 2.966-4.559 0.357-0.72 0.664-1.469 0.961-2.216 0.22-0.555 0.566-0.828 1.191-0.816l5.071 0.005c0.15 0 0.302 0.002 0.448 0.027 0.855 0.146 1.089 0.513 0.825 1.348-0.416 1.309-1.225 2.4-2.016 3.496-0.846 1.17-1.75 2.3-2.589 3.477-0.77 1.075-0.709 1.617 0.248 2.55z"></path>
</symbol>
<symbol id="instagram" viewBox="0 0 32 32">
<path d="M31.452 5.724c-0.291-2.729-2.447-4.885-5.176-5.176-6.844-0.73-13.709-0.73-20.553 0-2.729 0.291-4.885 2.447-5.176 5.176-0.73 6.844-0.73 13.709 0 20.553 0.291 2.729 2.447 4.885 5.176 5.176 6.844 0.73 13.709 0.73 20.553 0 2.729-0.291 4.884-2.447 5.176-5.176 0.73-6.844 0.73-13.708 0-20.553z"></path>
<path d="M29.712 6.881c-0.258-2.422-2.171-4.334-4.593-4.593-6.073-0.648-12.165-0.648-18.238 0-2.422 0.259-4.334 2.171-4.593 4.593-0.648 6.073-0.648 12.165 0 18.238 0.259 2.422 2.171 4.335 4.593 4.593 6.073 0.648 12.165 0.648 18.238 0 2.422-0.258 4.335-2.171 4.593-4.593 0.648-6.073 0.648-12.164 0-18.238z"></path>
<path d="M0.479 25.613c0.022 0.221 0.045 0.442 0.068 0.664 0.291 2.729 2.447 4.884 5.176 5.176 6.844 0.73 13.709 0.73 20.553 0 2.729-0.291 4.884-2.447 5.176-5.176 0.024-0.221 0.046-0.442 0.069-0.664h-31.041z"></path>
<path d="M31.452 26.276c0.393-3.678 0.574-7.361 0.544-11.044l-7.314-7.314c-0.914-1.043-2.249-1.694-3.817-1.751-3.225-0.116-6.461-0.11-9.687 0-2.679 0.092-4.553 1.893-5.033 4.54-0.085 0.467-0.136 0.941-0.202 1.411v7.759c0.037 0.252 0.091 0.502 0.108 0.755 0.107 1.61 0.769 2.989 1.828 3.922l7.443 7.443c3.653 0.026 7.306-0.156 10.954-0.545 2.729-0.291 4.884-2.447 5.176-5.176z"></path>
<path d="M31.452 26.277c-0.291 2.729-2.447 4.885-5.176 5.176-3.647 0.389-7.301 0.571-10.953 0.545l-7.432-7.432c0.862 0.754 1.985 1.213 3.288 1.262 3.225 0.121 6.461 0.118 9.686 0.002 2.917-0.105 5.028-2.264 5.119-5.181 0.097-3.097 0.097-6.202 0-9.3-0.042-1.346-0.514-2.53-1.297-3.426l7.31 7.31c0.029 3.682-0.152 7.366-0.545 11.044z"></path>
<path d="M19.776 12.535c-0.937-1.020-2.281-1.66-3.776-1.66-2.831 0-5.126 2.295-5.126 5.125 0 1.494 0.64 2.839 1.66 3.776l11.859 11.859c0.628-0.055 1.255-0.116 1.883-0.182 2.729-0.291 4.885-2.447 5.176-5.176 0.067-0.627 0.128-1.255 0.182-1.883l-11.859-11.859z"></path>
<path d="M31.938 19.447l-9.544-9.544c-0.223-0.292-0.574-0.482-0.969-0.482-0.673 0-1.219 0.546-1.219 1.219 0 0.396 0.19 0.747 0.482 0.969l11.080 11.080c0.075-1.081 0.132-2.162 0.171-3.243z"></path>
<path d="M5.943 12.119c0.067-0.471 0.117-0.944 0.202-1.411 0.48-2.647 2.354-4.447 5.033-4.54 3.226-0.111 6.461-0.117 9.687-0 2.916 0.105 5.028 2.264 5.119 5.181 0.097 3.097 0.097 6.202 0 9.3-0.091 2.917-2.202 5.076-5.119 5.181-3.225 0.116-6.462 0.119-9.687-0.002-2.916-0.11-4.933-2.274-5.128-5.195-0.017-0.253-0.071-0.503-0.108-0.755 0-2.586 0-5.173 0-7.759zM16.003 24.101c1.476 0 2.954 0.044 4.428-0.010 2.311-0.086 3.733-1.465 3.787-3.774 0.067-2.877 0.067-5.758 0-8.636-0.054-2.309-1.477-3.72-3.787-3.769-2.932-0.062-5.868-0.062-8.8 0-2.293 0.048-3.719 1.431-3.781 3.714-0.079 2.914-0.079 5.832 0 8.746 0.062 2.283 1.488 3.634 3.781 3.719 1.456 0.054 2.915 0.010 4.372 0.010z"></path>
<path fill="#fff" style="fill: var(--color2, #fff)" d="M5.943 12.119c0.067-0.471 0.117-0.944 0.202-1.411 0.48-2.647 2.354-4.447 5.033-4.54 3.226-0.111 6.461-0.117 9.687-0 2.916 0.105 5.028 2.264 5.119 5.181 0.097 3.097 0.097 6.202 0 9.3-0.091 2.917-2.202 5.076-5.119 5.181-3.225 0.116-6.462 0.119-9.687-0.002-2.916-0.11-4.933-2.274-5.128-5.195-0.017-0.253-0.071-0.503-0.108-0.755 0-2.586 0-5.173 0-7.759zM16.003 24.101c1.476 0 2.954 0.044 4.428-0.010 2.311-0.086 3.733-1.465 3.787-3.774 0.067-2.877 0.067-5.758 0-8.636-0.054-2.309-1.477-3.72-3.787-3.769-2.932-0.062-5.868-0.062-8.8 0-2.293 0.048-3.719 1.431-3.781 3.714-0.079 2.914-0.079 5.832 0 8.746 0.062 2.283 1.488 3.634 3.781 3.719 1.456 0.054 2.915 0.010 4.372 0.010z"></path>
<path fill="#fff" style="fill: var(--color2, #fff)" d="M16 10.875c-2.831 0-5.126 2.295-5.126 5.125s2.295 5.126 5.126 5.126c2.831 0 5.126-2.295 5.126-5.126s-2.295-5.125-5.126-5.125zM16 19.361c-1.856 0-3.361-1.505-3.361-3.361s1.505-3.361 3.361-3.361 3.361 1.505 3.361 3.361c0 1.856-1.505 3.361-3.361 3.361z"></path>
<path fill="#fff" style="fill: var(--color2, #fff)" d="M22.644 10.641c0 0.673-0.546 1.219-1.219 1.219s-1.219-0.546-1.219-1.219c0-0.674 0.546-1.219 1.219-1.219s1.219 0.546 1.219 1.219z"></path>
</symbol>
<symbol id="menu" fill="none" xmlns="http://www.w3.org/2000/svg"><path d="M0 1h20.5M0 7h20.5M0 13h20.5" stroke="#000" stroke-width="2"/></symbol>
<symbol id="cross" xmlns="http://www.w3.org/2000/svg"><g filter="url(#filter0_b)" stroke="#fff" stroke-width="2"><path d="M1 15.496L15.496 1M15.496 15.496L1 1"/></g><defs><filter id="filter0_b" x="-3.707" y="-3.707" width="23.91" height="23.91" filterUnits="userSpaceOnUse" color-interpolation-filters="sRGB"><feFlood flood-opacity="0" result="BackgroundImageFix"/><feGaussianBlur in="BackgroundImage" stdDeviation="2"/><feComposite in2="SourceAlpha" operator="in" result="effect1_backgroundBlur"/><feBlend in="SourceGraphic" in2="effect1_backgroundBlur" result="shape"/></filter></defs></symbol>
<symbol id="dash" fill="none" xmlns="http://www.w3.org/2000/svg"><path d="M0 .4h20v1.94H0V.4z" fill="#FF6B09"/></symbol>
<symbol id="close" viewBox="0 0 32 32"><path d="M23.733 10.304L22.229 8.8l-5.963 5.963L10.303 8.8l-1.504 1.504 5.963 5.963-5.963 5.963 1.504 1.504 5.963-5.963 5.963 5.963 1.504-1.504-5.963-5.963 5.963-5.963z"/></symbol>

<symbol id="tel" viewBox="0 0 20 20"><path d="M2.91.002a1.252 1.252 0 00-.87.407L.42 2.19c.002-.005-.006-.004-.052.06a.394.394 0 00-.057.11c-.66 2.103-.217 4.416.86 6.616 1.078 2.2 2.798 4.304 4.771 6.032 1.974 1.727 4.201 3.079 6.325 3.749 2.123.67 4.182.662 5.708-.445a.407.407 0 00.046-.041c.04-.04.042-.045.035-.039l.006-.008 1.614-1.775a1.263 1.263 0 00-.083-1.774l-3.829-3.482a1.263 1.263 0 00-1.775.083l-1.732 1.905c-1.406-.408-2.608-1.098-3.765-2.15C7.335 9.982 6.534 8.85 5.996 7.488l1.732-1.905a1.262 1.262 0 00-.084-1.775L3.816.325A1.253 1.253 0 002.91 0zm.037.78a.469.469 0 01.338.126L7.113 4.39a.46.46 0 01.032.663L5.23 7.157a.394.394 0 00-.078.4c.581 1.585 1.519 2.886 2.808 4.059 1.29 1.173 2.672 1.984 4.306 2.412a.395.395 0 00.39-.116l1.916-2.104a.46.46 0 01.662-.031l3.83 3.482a.46.46 0 01.03.662l-1.6 1.76c-1.253.898-3.017.949-4.992.325-1.983-.626-4.136-1.922-6.041-3.59-1.906-1.668-3.564-3.704-4.583-5.784-1.009-2.058-1.375-4.14-.82-5.974L2.622.94a.468.468 0 01.325-.157z"/></symbol>

<symbol id="icon-instagram" viewBox="0 0 32 32"><path d="M31.969 9.408c-.075-1.7-.35-2.869-.744-3.882a7.806 7.806 0 00-1.851-2.838A7.867 7.867 0 0026.542.844C25.523.45 24.36.175 22.66.1 20.947.019 20.403 0 16.059 0s-4.888.019-6.595.094c-1.7.075-2.869.35-3.882.744a7.803 7.803 0 00-2.838 1.85A7.867 7.867 0 00.9 5.52C.506 6.539.231 7.702.156 9.402c-.081 1.713-.1 2.257-.1 6.601s.019 4.888.094 6.595c.075 1.7.35 2.869.744 3.882a7.895 7.895 0 001.85 2.838 7.867 7.867 0 002.832 1.844c1.019.394 2.182.669 3.882.744 1.706.075 2.25.094 6.595.094s4.888-.019 6.595-.094c1.7-.075 2.869-.35 3.882-.744a8.184 8.184 0 004.682-4.682c.394-1.019.669-2.182.744-3.882.075-1.707.094-2.251.094-6.595s-.006-4.888-.081-6.595zm-2.882 13.065c-.069 1.563-.331 2.407-.55 2.969a5.31 5.31 0 01-3.038 3.038c-.563.219-1.413.481-2.969.55-1.688.075-2.194.094-6.464.094s-4.782-.019-6.464-.094c-1.563-.069-2.407-.331-2.969-.55a4.926 4.926 0 01-1.838-1.194 4.974 4.974 0 01-1.194-1.838c-.219-.563-.481-1.413-.55-2.969-.075-1.688-.094-2.194-.094-6.464s.019-4.782.094-6.464c.069-1.563.331-2.407.55-2.969a4.868 4.868 0 011.2-1.838A4.974 4.974 0 016.639 3.55c.563-.219 1.413-.481 2.969-.55 1.688-.075 2.194-.094 6.464-.094 4.276 0 4.782.019 6.464.094 1.563.069 2.407.331 2.969.55a4.914 4.914 0 011.838 1.194 4.974 4.974 0 011.194 1.838c.219.563.481 1.413.55 2.969.075 1.688.094 2.194.094 6.464s-.019 4.77-.094 6.458z"/><path d="M16.059 7.783c-4.538 0-8.22 3.682-8.22 8.22s3.682 8.22 8.22 8.22c4.539 0 8.22-3.682 8.22-8.22s-3.682-8.22-8.22-8.22zm0 13.552a5.333 5.333 0 010-10.664 5.333 5.333 0 010 10.664zM26.524 7.458a1.919 1.919 0 11-3.838 0 1.919 1.919 0 013.838 0z"/></symbol>

<symbol id="arrow-up" viewBox="0 0 32 32"><path d="M16 1l-15 15h9v16h12v-16h9z"></path></symbol>


<symbol id="icon-logo-full-white" viewBox="0 0 85 32">
<path fill="#fff" style="fill: var(--color1, #fff)" d="M11.933 4.686v12.542h-3.548v-4.892h-4.838v4.892h-3.548v-12.542h3.548v4.712h4.838v-4.712h3.548z"></path>
<path fill="#fff" style="fill: var(--color1, #fff)" d="M24.918 12.391c0 0.024-0.018 0.305-0.054 0.842h-7.060c0.143 0.502 0.418 0.89 0.824 1.165 0.418 0.263 0.938 0.394 1.559 0.394 0.466 0 0.866-0.066 1.2-0.197 0.346-0.131 0.693-0.346 1.039-0.645l1.792 1.863c-0.944 1.051-2.323 1.577-4.139 1.577-1.135 0-2.132-0.215-2.992-0.645s-1.529-1.027-2.007-1.792c-0.466-0.764-0.699-1.63-0.699-2.598 0-0.956 0.227-1.81 0.681-2.562 0.466-0.764 1.105-1.362 1.917-1.792s1.726-0.645 2.741-0.645c0.968 0 1.846 0.203 2.634 0.609 0.788 0.394 1.41 0.974 1.863 1.738 0.466 0.753 0.699 1.648 0.699 2.688zM19.739 9.775c-0.526 0-0.968 0.149-1.326 0.448-0.346 0.299-0.567 0.705-0.663 1.218h3.978c-0.096-0.514-0.323-0.92-0.681-1.218-0.346-0.299-0.782-0.448-1.308-0.448z"></path>
<path fill="#fff" style="fill: var(--color1, #fff)" d="M27.204 3.934h3.404v13.295h-3.404v-13.295z"></path>
<path fill="#fff" style="fill: var(--color1, #fff)" d="M33.538 3.934h3.404v13.295h-3.404v-13.295z"></path>
<path fill="#ff6b09" style="fill: var(--color2, #ff6b09)" d="M3.867 26.282v3.733h-0.864v-1.531h-1.696v1.531h-0.864v-3.733h0.864v1.472h1.696v-1.472h0.864zM8.601 29.322v0.693h-2.891v-3.733h2.821v0.693h-1.963v0.811h1.733v0.672h-1.733v0.864h2.032zM10.248 26.282h0.864v3.029h1.872v0.704h-2.736v-3.733zM14.427 26.282h0.864v3.029h1.872v0.704h-2.736v-3.733zM18.606 26.282h0.864v3.733h-0.864v-3.733zM22.542 30.080c-0.295 0-0.581-0.039-0.859-0.117-0.274-0.082-0.494-0.187-0.661-0.315l0.293-0.651c0.16 0.117 0.35 0.212 0.571 0.283s0.441 0.107 0.661 0.107c0.245 0 0.427-0.036 0.544-0.107 0.117-0.075 0.176-0.172 0.176-0.293 0-0.089-0.036-0.162-0.107-0.219-0.068-0.060-0.156-0.108-0.267-0.144-0.107-0.036-0.252-0.075-0.437-0.117-0.284-0.068-0.517-0.135-0.699-0.203s-0.338-0.176-0.469-0.325c-0.128-0.149-0.192-0.348-0.192-0.597 0-0.217 0.059-0.412 0.176-0.587 0.117-0.178 0.293-0.318 0.528-0.421 0.238-0.103 0.528-0.155 0.869-0.155 0.238 0 0.471 0.028 0.699 0.085s0.427 0.139 0.597 0.245l-0.267 0.656c-0.345-0.196-0.69-0.293-1.035-0.293-0.242 0-0.421 0.039-0.539 0.117-0.114 0.078-0.171 0.181-0.171 0.309s0.066 0.224 0.197 0.288c0.135 0.060 0.34 0.121 0.613 0.181 0.284 0.068 0.517 0.135 0.699 0.203s0.336 0.174 0.464 0.32c0.132 0.146 0.197 0.343 0.197 0.592 0 0.213-0.060 0.409-0.181 0.587-0.117 0.174-0.295 0.313-0.533 0.416s-0.528 0.155-0.869 0.155zM29.101 26.282v3.733h-0.864v-1.531h-1.696v1.531h-0.864v-3.733h0.864v1.472h1.696v-1.472h0.864z"></path>
<path fill="#fff" style="fill: var(--color1, #fff)" d="M36.305 29.322v0.693h-2.891v-3.733h2.821v0.693h-1.963v0.811h1.733v0.672h-1.733v0.864h2.032zM41.376 26.282v3.733h-0.709l-1.861-2.267v2.267h-0.853v-3.733h0.715l1.856 2.267v-2.267h0.853zM45.742 28.090h0.789v1.515c-0.203 0.153-0.437 0.27-0.704 0.352s-0.535 0.123-0.805 0.123c-0.388 0-0.736-0.082-1.045-0.245-0.309-0.167-0.553-0.396-0.731-0.688-0.174-0.295-0.261-0.628-0.261-0.997s0.087-0.7 0.261-0.992c0.178-0.295 0.423-0.524 0.736-0.688 0.313-0.167 0.665-0.251 1.056-0.251 0.327 0 0.624 0.055 0.891 0.165s0.491 0.27 0.672 0.48l-0.555 0.512c-0.267-0.281-0.588-0.421-0.965-0.421-0.238 0-0.45 0.050-0.635 0.149s-0.329 0.24-0.432 0.421-0.155 0.389-0.155 0.624c0 0.231 0.052 0.437 0.155 0.619s0.245 0.324 0.427 0.427c0.185 0.1 0.395 0.149 0.629 0.149 0.249 0 0.473-0.053 0.672-0.16v-1.093zM48.294 26.282h0.864v3.029h1.872v0.704h-2.736v-3.733zM52.473 26.282h0.864v3.733h-0.864v-3.733zM56.41 30.080c-0.295 0-0.581-0.039-0.859-0.117-0.274-0.082-0.494-0.187-0.661-0.315l0.293-0.651c0.16 0.117 0.35 0.212 0.571 0.283s0.441 0.107 0.661 0.107c0.245 0 0.427-0.036 0.544-0.107 0.117-0.075 0.176-0.172 0.176-0.293 0-0.089-0.036-0.162-0.107-0.219-0.068-0.060-0.156-0.108-0.267-0.144-0.107-0.036-0.252-0.075-0.437-0.117-0.284-0.068-0.517-0.135-0.699-0.203s-0.338-0.176-0.469-0.325c-0.128-0.149-0.192-0.348-0.192-0.597 0-0.217 0.059-0.412 0.176-0.587 0.117-0.178 0.293-0.318 0.528-0.421 0.238-0.103 0.528-0.155 0.869-0.155 0.238 0 0.471 0.028 0.699 0.085s0.427 0.139 0.597 0.245l-0.267 0.656c-0.345-0.196-0.69-0.293-1.035-0.293-0.242 0-0.421 0.039-0.539 0.117-0.114 0.078-0.171 0.181-0.171 0.309s0.066 0.224 0.197 0.288c0.135 0.060 0.34 0.121 0.613 0.181 0.284 0.068 0.517 0.135 0.699 0.203s0.336 0.174 0.464 0.32c0.132 0.146 0.197 0.343 0.197 0.592 0 0.213-0.060 0.409-0.181 0.587-0.117 0.174-0.295 0.313-0.533 0.416s-0.528 0.155-0.869 0.155zM62.968 26.282v3.733h-0.864v-1.531h-1.696v1.531h-0.864v-3.733h0.864v1.472h1.696v-1.472h0.864z"></path>
<path fill="#fff" style="fill: var(--color1, #fff)" d="M70.715 14.487v2.741h-10.070v-12.543h9.837v2.741h-6.325v2.114h5.572v2.652h-5.572v2.294h6.558z"></path>
<path fill="#fff" style="fill: var(--color1, #fff)" d="M85.333 4.686v12.543h-2.921l-5.537-6.683v6.683h-3.476v-12.543h2.921l5.537 6.683v-6.683h3.476z"></path>
<path fill="#ff6b09" style="fill: var(--color2, #ff6b09)" d="M55.627 10.72c-0.183-0.41-0.436-0.814-0.805-1.281-0.932-1.172-1.216-3.784-1.219-3.809-0.013-0.125-0.101-0.229-0.218-0.266-0.12-0.038-0.25-0.003-0.335 0.091-1.112 1.244-0.644 3.164-0.392 3.931 0.070 0.21 0.145 0.457 0.199 0.708 0.411 2.027-0.382 2.945-0.569 3.129-0.18 0.050-0.303 0.025-0.417-0.097-0.392-0.429-0.521-1.836-0.338-3.668 0.038-0.373 0.028-0.708-0.025-1.021-0.386-2.252-1.803-3.697-2.164-4.204-0.992-1.466-1.093-3.906-1.096-3.928-0.003-0.116-0.070-0.219-0.174-0.269-0.101-0.050-0.224-0.044-0.319 0.022-1.655 1.125-1.513 3.834-1.282 5.347 0.054 0.351 0.158 0.708 0.338 1.159 0.641 1.613-0.126 3.696-0.133 3.715s-0.013 0.034-0.016 0.053c-0.098 0.514-0.262 0.821-0.445 0.821-0.019 0-0.038-0.003-0.060-0.009-0.224-0.047-0.341-0.285-0.344-0.492-0.013-2.672-2.694-3.571-2.723-3.58-0.12-0.038-0.253-0.003-0.335 0.094-0.085 0.097-0.101 0.232-0.044 0.345 0.032 0.066 0.133 0.354 0.063 1.372-0.060 0.915-0.228 1.82-0.496 2.688-0.638 2.080-0.537 4.050-0.531 4.144 0.491 5.335 8.163 6.27 12.716 3.264 0.499-0.329 0.906-0.705 1.206-1.118 1.68-2.318 0.692-5.466-0.044-7.139zM43.956 15.817c0.009 0.172-0.123 0.319-0.297 0.329h-0.019c-0.167 0-0.306-0.128-0.316-0.294-0.028-0.457-0.022-0.937 0.013-1.457 0.013-0.172 0.164-0.301 0.338-0.291 0.174 0.012 0.306 0.163 0.294 0.335-0.035 0.495-0.041 0.946-0.013 1.378zM44.111 13.041c-0.019 0.16-0.155 0.276-0.313 0.276-0.013 0-0.025 0-0.041-0.003-0.171-0.022-0.294-0.175-0.275-0.348l0.152-1.209c0.022-0.169 0.177-0.291 0.354-0.273 0.174 0.022 0.297 0.179 0.275 0.351l-0.152 1.206z"></path>
<path fill="#ff6b09" style="fill: var(--color2, #ff6b09)" d="M53.491 4.286c-0.172-0.026-0.29-0.186-0.264-0.357 0.020-0.127 0.134-0.779 0.444-1.106 0.119-0.126 0.319-0.133 0.447-0.014s0.134 0.316 0.014 0.443c-0.131 0.139-0.243 0.536-0.28 0.773-0.027 0.169-0.186 0.288-0.36 0.261z"></path>
<path fill="#ff6b09" style="fill: var(--color2, #ff6b09)" d="M41.976 5.846c-0.060-0.233-0.211-0.617-0.355-0.743-0.131-0.114-0.144-0.312-0.029-0.442s0.314-0.144 0.446-0.029c0.34 0.296 0.518 0.933 0.55 1.058 0.043 0.168-0.059 0.338-0.227 0.381-0.172 0.043-0.342-0.061-0.385-0.225z"></path>
</symbol>
<symbol id="icon-logo-full" viewBox="0 0 85 32">
<path fill="#111518" style="fill: var(--color1, #111518)" d="M11.933 4.686v12.542h-3.548v-4.892h-4.838v4.892h-3.548v-12.542h3.548v4.712h4.838v-4.712h3.548z"></path>
<path fill="#111518" style="fill: var(--color1, #111518)" d="M24.918 12.391c0 0.024-0.018 0.305-0.054 0.842h-7.060c0.143 0.502 0.418 0.89 0.824 1.165 0.418 0.263 0.938 0.394 1.559 0.394 0.466 0 0.866-0.066 1.2-0.197 0.346-0.131 0.693-0.346 1.039-0.645l1.792 1.863c-0.944 1.051-2.323 1.577-4.139 1.577-1.135 0-2.132-0.215-2.992-0.645s-1.529-1.027-2.007-1.792c-0.466-0.764-0.699-1.63-0.699-2.598 0-0.956 0.227-1.81 0.681-2.562 0.466-0.764 1.105-1.362 1.917-1.792s1.726-0.645 2.741-0.645c0.968 0 1.846 0.203 2.634 0.609 0.788 0.394 1.41 0.974 1.863 1.738 0.466 0.753 0.699 1.648 0.699 2.688zM19.739 9.775c-0.526 0-0.968 0.149-1.326 0.448-0.346 0.299-0.567 0.705-0.663 1.218h3.978c-0.096-0.514-0.323-0.92-0.681-1.218-0.346-0.299-0.782-0.448-1.308-0.448z"></path>
<path fill="#111518" style="fill: var(--color1, #111518)" d="M27.204 3.934h3.404v13.295h-3.404v-13.295z"></path>
<path fill="#111518" style="fill: var(--color1, #111518)" d="M33.538 3.934h3.404v13.295h-3.404v-13.295z"></path>
<path fill="#ff6b09" style="fill: var(--color2, #ff6b09)" d="M3.867 26.282v3.733h-0.864v-1.531h-1.696v1.531h-0.864v-3.733h0.864v1.472h1.696v-1.472h0.864zM8.601 29.322v0.693h-2.891v-3.733h2.821v0.693h-1.963v0.811h1.733v0.672h-1.733v0.864h2.032zM10.248 26.282h0.864v3.029h1.872v0.704h-2.736v-3.733zM14.427 26.282h0.864v3.029h1.872v0.704h-2.736v-3.733zM18.606 26.282h0.864v3.733h-0.864v-3.733zM22.542 30.080c-0.295 0-0.581-0.039-0.859-0.117-0.274-0.082-0.494-0.187-0.661-0.315l0.293-0.651c0.16 0.117 0.35 0.212 0.571 0.283s0.441 0.107 0.661 0.107c0.245 0 0.427-0.036 0.544-0.107 0.117-0.075 0.176-0.172 0.176-0.293 0-0.089-0.036-0.162-0.107-0.219-0.068-0.060-0.156-0.108-0.267-0.144-0.107-0.036-0.252-0.075-0.437-0.117-0.284-0.068-0.517-0.135-0.699-0.203s-0.338-0.176-0.469-0.325c-0.128-0.149-0.192-0.348-0.192-0.597 0-0.217 0.059-0.412 0.176-0.587 0.117-0.178 0.293-0.318 0.528-0.421 0.238-0.103 0.528-0.155 0.869-0.155 0.238 0 0.471 0.028 0.699 0.085s0.427 0.139 0.597 0.245l-0.267 0.656c-0.345-0.196-0.69-0.293-1.035-0.293-0.242 0-0.421 0.039-0.539 0.117-0.114 0.078-0.171 0.181-0.171 0.309s0.066 0.224 0.197 0.288c0.135 0.060 0.34 0.121 0.613 0.181 0.284 0.068 0.517 0.135 0.699 0.203s0.336 0.174 0.464 0.32c0.132 0.146 0.197 0.343 0.197 0.592 0 0.213-0.060 0.409-0.181 0.587-0.117 0.174-0.295 0.313-0.533 0.416s-0.528 0.155-0.869 0.155zM29.101 26.282v3.733h-0.864v-1.531h-1.696v1.531h-0.864v-3.733h0.864v1.472h1.696v-1.472h0.864z"></path>
<path fill="#111518" style="fill: var(--color1, #111518)" d="M36.305 29.322v0.693h-2.891v-3.733h2.821v0.693h-1.963v0.811h1.733v0.672h-1.733v0.864h2.032zM41.376 26.282v3.733h-0.709l-1.861-2.267v2.267h-0.853v-3.733h0.715l1.856 2.267v-2.267h0.853zM45.742 28.090h0.789v1.515c-0.203 0.153-0.437 0.27-0.704 0.352s-0.535 0.123-0.805 0.123c-0.388 0-0.736-0.082-1.045-0.245-0.309-0.167-0.553-0.396-0.731-0.688-0.174-0.295-0.261-0.628-0.261-0.997s0.087-0.7 0.261-0.992c0.178-0.295 0.423-0.524 0.736-0.688 0.313-0.167 0.665-0.251 1.056-0.251 0.327 0 0.624 0.055 0.891 0.165s0.491 0.27 0.672 0.48l-0.555 0.512c-0.267-0.281-0.588-0.421-0.965-0.421-0.238 0-0.45 0.050-0.635 0.149s-0.329 0.24-0.432 0.421-0.155 0.389-0.155 0.624c0 0.231 0.052 0.437 0.155 0.619s0.245 0.324 0.427 0.427c0.185 0.1 0.395 0.149 0.629 0.149 0.249 0 0.473-0.053 0.672-0.16v-1.093zM48.294 26.282h0.864v3.029h1.872v0.704h-2.736v-3.733zM52.473 26.282h0.864v3.733h-0.864v-3.733zM56.41 30.080c-0.295 0-0.581-0.039-0.859-0.117-0.274-0.082-0.494-0.187-0.661-0.315l0.293-0.651c0.16 0.117 0.35 0.212 0.571 0.283s0.441 0.107 0.661 0.107c0.245 0 0.427-0.036 0.544-0.107 0.117-0.075 0.176-0.172 0.176-0.293 0-0.089-0.036-0.162-0.107-0.219-0.068-0.060-0.156-0.108-0.267-0.144-0.107-0.036-0.252-0.075-0.437-0.117-0.284-0.068-0.517-0.135-0.699-0.203s-0.338-0.176-0.469-0.325c-0.128-0.149-0.192-0.348-0.192-0.597 0-0.217 0.059-0.412 0.176-0.587 0.117-0.178 0.293-0.318 0.528-0.421 0.238-0.103 0.528-0.155 0.869-0.155 0.238 0 0.471 0.028 0.699 0.085s0.427 0.139 0.597 0.245l-0.267 0.656c-0.345-0.196-0.69-0.293-1.035-0.293-0.242 0-0.421 0.039-0.539 0.117-0.114 0.078-0.171 0.181-0.171 0.309s0.066 0.224 0.197 0.288c0.135 0.060 0.34 0.121 0.613 0.181 0.284 0.068 0.517 0.135 0.699 0.203s0.336 0.174 0.464 0.32c0.132 0.146 0.197 0.343 0.197 0.592 0 0.213-0.060 0.409-0.181 0.587-0.117 0.174-0.295 0.313-0.533 0.416s-0.528 0.155-0.869 0.155zM62.968 26.282v3.733h-0.864v-1.531h-1.696v1.531h-0.864v-3.733h0.864v1.472h1.696v-1.472h0.864z"></path>
<path fill="#111518" style="fill: var(--color1, #111518)" d="M70.715 14.487v2.741h-10.070v-12.543h9.837v2.741h-6.325v2.114h5.572v2.652h-5.572v2.294h6.558z"></path>
<path fill="#111518" style="fill: var(--color1, #111518)" d="M85.333 4.686v12.543h-2.921l-5.537-6.683v6.683h-3.476v-12.543h2.921l5.537 6.683v-6.683h3.476z"></path>
<path fill="#ff6b09" style="fill: var(--color2, #ff6b09)" d="M55.627 10.72c-0.183-0.41-0.436-0.814-0.805-1.281-0.932-1.172-1.216-3.784-1.219-3.809-0.013-0.125-0.101-0.229-0.218-0.266-0.12-0.038-0.25-0.003-0.335 0.091-1.112 1.244-0.644 3.164-0.392 3.931 0.070 0.21 0.145 0.457 0.199 0.708 0.411 2.027-0.382 2.945-0.569 3.129-0.18 0.050-0.303 0.025-0.417-0.097-0.392-0.429-0.521-1.836-0.338-3.668 0.038-0.373 0.028-0.708-0.025-1.021-0.386-2.252-1.803-3.697-2.164-4.204-0.992-1.466-1.093-3.906-1.096-3.928-0.003-0.116-0.070-0.219-0.174-0.269-0.101-0.050-0.224-0.044-0.319 0.022-1.655 1.125-1.513 3.834-1.282 5.347 0.054 0.351 0.158 0.708 0.338 1.159 0.641 1.613-0.126 3.696-0.133 3.715s-0.013 0.034-0.016 0.053c-0.098 0.514-0.262 0.821-0.445 0.821-0.019 0-0.038-0.003-0.060-0.009-0.224-0.047-0.341-0.285-0.344-0.492-0.013-2.672-2.694-3.571-2.723-3.58-0.12-0.038-0.253-0.003-0.335 0.094-0.085 0.097-0.101 0.232-0.044 0.345 0.032 0.066 0.133 0.354 0.063 1.372-0.060 0.915-0.228 1.82-0.496 2.688-0.638 2.080-0.537 4.050-0.531 4.144 0.491 5.335 8.163 6.27 12.716 3.264 0.499-0.329 0.906-0.705 1.206-1.118 1.68-2.318 0.692-5.466-0.044-7.139zM43.956 15.817c0.009 0.172-0.123 0.319-0.297 0.329h-0.019c-0.167 0-0.306-0.128-0.316-0.294-0.028-0.457-0.022-0.937 0.013-1.457 0.013-0.172 0.164-0.301 0.338-0.291 0.174 0.012 0.306 0.163 0.294 0.335-0.035 0.495-0.041 0.946-0.013 1.378zM44.111 13.041c-0.019 0.16-0.155 0.276-0.313 0.276-0.013 0-0.025 0-0.041-0.003-0.171-0.022-0.294-0.175-0.275-0.348l0.152-1.209c0.022-0.169 0.177-0.291 0.354-0.273 0.174 0.022 0.297 0.179 0.275 0.351l-0.152 1.206z"></path>
<path fill="#ff6b09" style="fill: var(--color2, #ff6b09)" d="M53.491 4.286c-0.172-0.026-0.29-0.186-0.264-0.357 0.020-0.127 0.134-0.779 0.444-1.106 0.119-0.126 0.319-0.133 0.447-0.014s0.134 0.316 0.014 0.443c-0.131 0.139-0.243 0.536-0.28 0.773-0.027 0.169-0.186 0.288-0.36 0.261z"></path>
<path fill="#ff6b09" style="fill: var(--color2, #ff6b09)" d="M41.976 5.846c-0.060-0.233-0.211-0.617-0.355-0.743-0.131-0.114-0.144-0.312-0.029-0.442s0.314-0.144 0.446-0.029c0.34 0.296 0.518 0.933 0.55 1.058 0.043 0.168-0.059 0.338-0.227 0.381-0.172 0.043-0.342-0.061-0.385-0.225z"></path>
</symbol>

</defs>
</svg>